<svg width="19" height="14" viewBox="0 0 19 14" fill="none" xmlns="http://www.w3.org/2000/svg">
<path d="M18.6565 1.9316L16.9905 0.330189C16.7629 0.111439 16.4838 0 16.1575 0C15.8312 0 15.5521 0.111439 15.3245 0.330189L7.28226 8.07311L3.67977 4.59788C3.4522 4.37913 3.17311 4.26769 2.84678 4.26769C2.52045 4.26769 2.24136 4.37913 2.01379 4.59788L0.343503 6.19929C0.115932 6.41804 0 6.68632 0 7C0 7.31368 0.115932 7.58196 0.343503 7.80071L4.78328 12.0643L6.44927 13.6657C6.67684 13.8844 6.95593 13.9959 7.28226 13.9959C7.60859 13.9959 7.88768 13.8844 8.11525 13.6657L9.78124 12.0643L18.6565 3.53715C18.8841 3.3184 19 3.05012 19 2.73644C19 2.41863 18.8884 2.15448 18.6565 1.9316Z" fill="#231F20"/>
</svg>
